<?xml version="1.0" encoding="UTF-8"?>
<svg width="17px" height="17px" viewBox="0 0 17 17" version="1.1" xmlns="http://www.w3.org/2000/svg" xmlns:xlink="http://www.w3.org/1999/xlink">
    <!-- Generator: Sketch 40.1 (33804) - http://www.bohemiancoding.com/sketch -->
    <title>ic_footer_ins</title>
    <desc>Created with Sketch.</desc>
    <defs></defs>
    <g id="Page-1" stroke="none" stroke-width="1" fill="none" fill-rule="evenodd" opacity="0.5">
        <g id="PRODUCTO" transform="translate(-194.000000, -7100.000000)" fill="#FFFFFF">
            <g id="Group-19" transform="translate(44.000000, 5340.000000)">
                <g id="Group-9" transform="translate(16.000000, 1636.000000)">
                    <g id="ic_footer_ins" transform="translate(134.000000, 124.000000)">
                        <path d="M8.5,1.53374405 C10.7688929,1.53374405 11.037621,1.54237897 11.933629,1.58325992 C12.7621091,1.62107143 13.2120357,1.7595 13.5114921,1.87583532 C13.9080913,2.02998214 14.1911885,2.21414881 14.4885198,2.51148016 C14.7858512,2.80881151 14.9700179,3.09190873 15.124131,3.48850794 C15.2405,3.78796429 15.3789286,4.23789087 15.4167401,5.0663373 C15.457621,5.96237897 15.466256,6.23110714 15.466256,8.5 C15.466256,10.7688929 15.457621,11.037621 15.4167401,11.933629 C15.3789286,12.7621091 15.2405,13.2120357 15.124131,13.5114921 C14.9700179,13.9080913 14.7858512,14.1911885 14.4885198,14.4885198 C14.1911885,14.7858512 13.9080913,14.9700179 13.5114921,15.124131 C13.2120357,15.2405 12.7621091,15.3789286 11.933629,15.4167401 C11.037756,15.457621 10.7690278,15.466256 8.5,15.466256 C6.23097222,15.466256 5.96224405,15.457621 5.06637103,15.4167401 C4.23789087,15.3789286 3.78796429,15.2405 3.48854167,15.124131 C3.09190873,14.9700179 2.80881151,14.7858512 2.51148016,14.4885198 C2.21414881,14.1911885 2.02998214,13.9080913 1.87586905,13.5114921 C1.7595,13.2120357 1.62107143,12.7621091 1.58325992,11.9336627 C1.54237897,11.037621 1.53374405,10.7688929 1.53374405,8.5 C1.53374405,6.23110714 1.54237897,5.96237897 1.58325992,5.06637103 C1.62107143,4.23789087 1.7595,3.78796429 1.87586905,3.48850794 C2.02998214,3.09190873 2.21414881,2.80881151 2.51148016,2.51148016 C2.80881151,2.21414881 3.09190873,2.02998214 3.48854167,1.87583532 C3.78796429,1.7595 4.23789087,1.62107143 5.0663373,1.58325992 C5.96237897,1.54237897 6.23110714,1.53374405 8.5,1.53374405 M8.5,0.00266468254 C6.19225,0.00266468254 5.9029127,0.0124464286 4.99658333,0.0537996032 C4.09210913,0.0950853175 3.47444246,0.238708333 2.93391667,0.448779762 C2.37514286,0.665934524 1.90126786,0.956486111 1.42887698,1.42887698 C0.956486111,1.90126786 0.665934524,2.37514286 0.448779762,2.93391667 C0.238708333,3.47444246 0.0950853175,4.09210913 0.0537996032,4.99658333 C0.0124464286,5.90287897 0.0026984127,6.19225 0.0026984127,8.5 C0.0026984127,10.80775 0.0124464286,11.097121 0.0537996032,12.0034167 C0.0950853175,12.9078909 0.238708333,13.5255575 0.448779762,14.0660833 C0.665934524,14.6248234 0.956486111,15.0987321 1.42887698,15.571123 C1.90126786,16.0435139 2.37514286,16.3340655 2.93391667,16.5512202 C3.47444246,16.7612917 4.09210913,16.9049147 4.99658333,16.9462004 C5.9029127,16.9875536 6.19225,16.9973016 8.5,16.9973016 C10.80775,16.9973016 11.097121,16.9875536 12.0034167,16.9462004 C12.9078909,16.9049147 13.5255575,16.7612917 14.0660833,16.5512202 C14.6248571,16.3340655 15.0987321,16.0435139 15.571123,15.571123 C16.0435139,15.0987321 16.3340655,14.6248571 16.5512202,14.0660833 C16.7612917,13.5255575 16.9049147,12.9078909 16.9462004,12.0034167 C16.9875536,11.097121 16.9973353,10.80775 16.9973353,8.5 C16.9973353,6.19225 16.9875536,5.90287897 16.9462004,4.99658333 C16.9049147,4.09210913 16.7612917,3.47444246 16.5512202,2.93391667 C16.3340655,2.37514286 16.0435139,1.90126786 15.571123,1.42887698 C15.0987321,0.956486111 14.6248571,0.665934524 14.0660833,0.448779762 C13.5255575,0.238708333 12.9078909,0.0950853175 12.0034167,0.0537996032 C11.097121,0.0124464286 10.80775,0.00266468254 8.5,0.00266468254" id="Fill-1"></path>
                        <path d="M8.5,4.13649802 C6.09011508,4.13649802 4.13649802,6.09011508 4.13649802,8.5 C4.13649802,10.9098849 6.09011508,12.863502 8.5,12.863502 C10.9098849,12.863502 12.863502,10.9098849 12.863502,8.5 C12.863502,6.09011508 10.9098849,4.13649802 8.5,4.13649802 L8.5,4.13649802 Z M8.5,11.3324563 C6.93569643,11.3324563 5.66754365,10.0643036 5.66754365,8.5 C5.66754365,6.93569643 6.93569643,5.66754365 8.5,5.66754365 C10.0643036,5.66754365 11.3324563,6.93569643 11.3324563,8.5 C11.3324563,10.0643036 10.0643036,11.3324563 8.5,11.3324563 L8.5,11.3324563 Z" id="Fill-2"></path>
                        <path d="M14.0555595,3.96410317 C14.0555595,4.5272619 13.5990556,4.9837996 13.0358968,4.9837996 C12.4727381,4.9837996 12.0162004,4.5272619 12.0162004,3.96410317 C12.0162004,3.40094444 12.4727381,2.94444048 13.0358968,2.94444048 C13.5990556,2.94444048 14.0555595,3.40094444 14.0555595,3.96410317" id="Fill-3"></path>
                    </g>
                </g>
            </g>
        </g>
    </g>
</svg>